<svg width="312" height="352" viewBox="0 0 312 352" fill="none" xmlns="http://www.w3.org/2000/svg">
<path fill-rule="evenodd" clip-rule="evenodd" d="M140.844 151.499L182.901 151.499C198.508 151.499 211.16 138.847 211.16 123.24C211.16 107.633 198.508 94.9811 182.901 94.9811L140.844 94.9811L140.844 151.499ZM250.714 123.24C250.714 85.7884 220.353 55.4277 182.901 55.4277L101.291 55.4277L101.291 191.053L182.901 191.053C220.353 191.053 250.714 160.692 250.714 123.24Z" fill="#3A3656"/>
<path fill-rule="evenodd" clip-rule="evenodd" d="M140.842 256.985L180.387 256.985C197.382 256.985 211.158 243.208 211.158 226.214C211.158 209.22 197.382 195.443 180.387 195.443L140.842 195.443L140.842 256.985ZM250.711 226.214C250.711 187.375 219.226 155.89 180.387 155.89L101.289 155.89L101.289 296.538L180.387 296.538C219.226 296.538 250.711 265.053 250.711 226.214Z" fill="#3A3656"/>
<path d="M101.279 260.922L101.279 296.084L61.4327 296.084L61.4327 260.922L101.279 260.922Z" fill="#3A3656"/>
<path d="M101.28 55.4287L101.28 90.5908L61.4342 90.5908L61.4342 55.4287L101.28 55.4287Z" fill="#3A3656"/>
<path d="M141.582 55.4258L106.716 55.4258L106.716 25.2869L141.582 25.2869L141.582 55.4258Z" fill="#3A3656"/>
<path d="M141.579 326.678L106.714 326.678L106.714 296.539L141.579 296.539L141.579 326.678Z" fill="#3A3656"/>
<path d="M193.197 55.4268L158.331 55.4268L158.331 25.2879L193.197 25.2879L193.197 55.4268Z" fill="#3A3656"/>
<path d="M193.199 326.677L158.333 326.677L158.333 296.538L193.199 296.538L193.199 326.677Z" fill="#3A3656"/>
</svg>
